<?xml version="1.0" encoding="UTF-8"?>
<svg id="Layer_1" xmlns="http://www.w3.org/2000/svg" version="1.1" viewBox="0 0 297.32 289.69">
  <!-- Generator: Adobe Illustrator 29.6.1, SVG Export Plug-In . SVG Version: 2.1.1 Build 9)  -->
  <defs>
    <style>
      .st0 {
        fill: #fff;
      }
    </style>
  </defs>
  <path class="st0" d="M280.14,73.83h-19.86s0,.02-.01.04c-12.28,23.57-29.91,32.94-52.49,27.77-13.85-3.17-26.46-11-35.99-19.16,6.45-6.41,10.44-15.28,10.44-25.09,0-19.55-15.85-35.39-35.39-35.39s-35.39,15.85-35.39,35.39,15.85,35.39,35.39,35.39c2.4,0,4.74-.24,7.01-.7,15.1,14.71,37.55,28.03,60.39,29.82,1.7.13,3.46.21,5.27.21,3.51,0,7.18-.28,10.94-.95-7.75,7.51-17,14.32-28.01,19.41-30.85,14.25-68.58,12.68-112.45-4.57.28-1.81.48-3.65.48-5.54,0-19.55-15.85-35.39-35.39-35.39s-35.39,15.85-35.39,35.39,15.85,35.39,35.39,35.39c10.81,0,20.47-4.86,26.96-12.5,26.72,10.61,51.62,15.96,74.54,15.96,4.19,0,8.29-.21,12.35-.57.09,3.18-.13,23.63-19.31,39.75-6.47-7.09-15.76-11.57-26.12-11.57-19.55,0-35.39,15.85-35.39,35.39s15.85,35.39,35.39,35.39,35.39-15.85,35.39-35.39c0-2.19-.23-4.33-.61-6.41,28.2-21.2,30.96-51.57,29.52-60.22,7.83-1.88,15.39-4.45,22.65-7.8,39.82-18.4,60.4-54.72,67.99-78.16.02-.05.05-.08.07-.13h-.02c.65-2.04,1.2-3.95,1.66-5.77ZM146.87,74.11c-9.23,0-16.72-7.49-16.72-16.72s7.49-16.72,16.72-16.72,16.72,7.49,16.72,16.72-7.49,16.72-16.72,16.72ZM62.81,144.96c-2.31,1.24-4.94,1.94-7.75,1.94-9.08,0-16.44-7.36-16.44-16.44s7.36-16.44,16.44-16.44c8.19,0,14.97,6,16.22,13.84.14.85.23,1.71.23,2.6,0,6.28-3.52,11.73-8.7,14.5ZM139.3,236.76c-1.94,6.92-8.28,12-15.82,12-9.08,0-16.44-7.36-16.44-16.44s7.36-16.44,16.44-16.44c3.47,0,6.68,1.08,9.33,2.91,4.29,2.97,7.11,7.92,7.11,13.53,0,1.54-.23,3.03-.62,4.44ZM168.97,168.82s0-.06-.01-.08c.29-.03.58-.04.86-.07l-.85.15Z"/>
</svg>