<?xml version="1.0" encoding="UTF-8"?>
<svg xmlns="http://www.w3.org/2000/svg" version="1.1" viewBox="0 0 411 134">
  <defs>
    <style>
      .cls-1 {
        fill: #fff;
      }
    </style>
  </defs>
  <!-- Generator: Adobe Illustrator 28.7.2, SVG Export Plug-In . SVG Version: 1.2.0 Build 154)  -->
  <g>
    <g id="Layer_1">
      <g id="Layer_1-2" data-name="Layer_1">
        <g id="Layer_1-2">
          <g>
            <path class="cls-1" d="M124.2,108.5c-2.9,0-5.3-.3-7.2-1v-7.6c1.9.5,3.7.7,5.7.7,4.1,0,6.1-2.3,6.1-6.9v-50.4h9.6v51.1c0,4.7-1.2,8.2-3.7,10.6-2.4,2.4-6,3.6-10.6,3.6h0Z"/>
            <path class="cls-1" d="M179.9,88.4l-1.3-5.9h-.5c-1.3,2.1-3.2,3.7-5.7,4.9-2.5,1.2-5.3,1.8-8.4,1.8-5.5,0-9.6-1.4-12.3-4.1s-4-6.9-4-12.4v-29.5h9.7v27.9c0,3.5.7,6.1,2.1,7.8,1.4,1.7,3.6,2.6,6.7,2.6s7-1.2,8.9-3.6,2.8-6.4,2.8-12.1v-22.5h9.6v45.2h-7.6Z"/>
            <path class="cls-1" d="M228.9,88.4l-1.3-5.9h-.5c-1.3,2.1-3.2,3.7-5.7,4.9-2.5,1.2-5.3,1.8-8.4,1.8-5.5,0-9.6-1.4-12.3-4.1s-4-6.9-4-12.4v-29.5h9.7v27.9c0,3.5.7,6.1,2.1,7.8,1.4,1.7,3.6,2.6,6.7,2.6s7-1.2,8.9-3.6,2.8-6.4,2.8-12.1v-22.5h9.6v45.2h-7.6Z"/>
            <path class="cls-1" d="M268.6,42.4c1.9,0,3.5,0,4.8.4l-.9,8.9c-1.4-.3-2.8-.5-4.2-.5-3.8,0-7,1.3-9.3,3.8-2.4,2.5-3.6,5.8-3.6,9.8v23.6h-9.6v-45.2h7.5l1.3,8h.5c1.5-2.7,3.5-4.8,5.9-6.4,2.4-1.6,5-2.4,7.8-2.4h-.2,0Z"/>
            <path class="cls-1" d="M292.2,88.4h-9.6v-45.2h9.6v45.2Z"/>
            <path class="cls-1" d="M352.7,88.4l-1.9-6.3h-.3c-2.2,2.7-4.4,4.6-6.6,5.6s-5,1.5-8.5,1.5-7.9-1.2-10.4-3.6-3.7-5.8-3.7-10.2,1.7-8.2,5.2-10.5,8.7-3.7,15.8-3.9l7.8-.2v-2.4c0-2.9-.7-5-2-6.5-1.4-1.4-3.4-2.1-6.3-2.1s-4.5.3-6.7,1c-2.1.7-4.2,1.5-6.1,2.4l-3.1-6.9c2.5-1.3,5.1-2.3,8-2.9,2.9-.7,5.7-1,8.3-1,5.7,0,10.1,1.3,13,3.8s4.4,6.4,4.4,11.8v30.4h-6.9,0ZM338.4,81.9c3.5,0,6.3-1,8.4-2.9s3.2-4.7,3.2-8.2v-3.9l-5.8.2c-4.5.2-7.8.9-9.9,2.3-2.1,1.3-3.1,3.4-3.1,6.2s.6,3.6,1.8,4.7c1.2,1.1,3,1.7,5.4,1.7h0Z"/>
            <path class="cls-1" d="M378.4,88.4h-9.6v-45.2h9.6v45.2Z"/>
          </g>
          <circle class="cls-1" cx="133.7" cy="31.1" r="5.6"/>
          <circle class="cls-1" cx="287.4" cy="31.1" r="5.6"/>
          <circle class="cls-1" cx="373.6" cy="31.1" r="5.6"/>
          <circle class="cls-1" cx="307.5" cy="83.7" r="5.6"/>
        </g>
      </g>
      <g id="Layer_1-3" data-name="Layer_1">
        <g>
          <path class="cls-1" d="M89,74.2l-6.3,1.1s0,0,0-.2c0,.1.5,7.7-6.5,13.6-2.2-2.4-5.3-3.9-8.8-3.9-6.6,0-11.9,5.3-11.9,11.9s5.3,11.9,11.9,11.9,11.9-5.3,11.9-11.9,0-1.5-.2-2.2c9.6-7.2,10.5-17.5,10-20.4ZM67.3,102.3c-3.1,0-5.6-2.5-5.6-5.6s2.5-5.6,5.6-5.6,2.3.4,3.2,1c1.4,1,2.4,2.7,2.4,4.6s0,1-.2,1.5c-.7,2.3-2.8,4.1-5.3,4.1Z"/>
          <g>
            <path class="cls-1" d="M95.8,52.6c-4.7-1.1-8.9-3.7-12.2-6.5,2.2-2.2,3.5-5.2,3.5-8.5,0-6.6-5.3-11.9-11.9-11.9s-11.9,5.3-11.9,11.9,5.3,11.9,11.9,11.9,1.6,0,2.4-.2c5.1,5,12.7,9.5,20.4,10.1.6,0,1.2,0,1.8,0,1.2,0,2.4,0,3.7-.3,5.5-5.3,8.6-11.6,10.1-16-4.1,8-10.1,11.1-17.7,9.4ZM75.2,43.3c-3.1,0-5.6-2.5-5.6-5.6s2.5-5.6,5.6-5.6,5.6,2.5,5.6,5.6-2.5,5.6-5.6,5.6Z"/>
            <path class="cls-1" d="M119.7,45.2h0s0,0,0,0c0,0,0,0,0,0Z"/>
            <path class="cls-1" d="M113.5,43.2s0,0,0,0h0s0,0,0,0Z"/>
            <path class="cls-1" d="M113.5,43.2h0c-1.4,4.4-4.6,10.7-10.1,16-2.6,2.5-5.7,4.8-9.5,6.6-10.4,4.8-23.2,4.3-38-1.5,0-.6.2-1.2.2-1.9,0-6.6-5.3-11.9-11.9-11.9s-11.9,5.3-11.9,11.9,5.3,11.9,11.9,11.9,6.9-1.6,9.1-4.2c9,3.6,17.4,5.4,25.2,5.4s12.6-1.3,18.2-3.9c13.4-6.2,20.4-18.5,23-26.4,0,0,0,0,0,0,.2-.7.4-1.3.6-1.9h-6.7ZM46.8,67.3c-.8.4-1.7.7-2.6.7-3.1,0-5.6-2.5-5.6-5.6s2.5-5.6,5.6-5.6,5.1,2,5.5,4.7c0,.3,0,.6,0,.9,0,2.1-1.2,4-2.9,4.9Z"/>
          </g>
        </g>
      </g>
    </g>
  </g>
</svg>